<?xml version="1.0" encoding="UTF-8"?>
<!DOCTYPE svg PUBLIC "-//W3C//DTD SVG 1.1//EN" "http://www.w3.org/Graphics/SVG/1.1/DTD/svg11.dtd">
<!-- Creator: CorelDRAW X6 -->
<svg xmlns="http://www.w3.org/2000/svg" xml:space="preserve" width="73.0579mm" height="39.6155mm" version="1.1" style="shape-rendering:geometricPrecision; text-rendering:geometricPrecision; image-rendering:optimizeQuality; fill-rule:evenodd; clip-rule:evenodd"
viewBox="0 0 2879 1561"
 xmlns:xlink="http://www.w3.org/1999/xlink">
 <defs>
  <style type="text/css">
   <![CDATA[
    .str0 {stroke:#2B2A29;stroke-width:7.88057}
    .fil0 {fill:black}
    .fil1 {fill:#030303}
    .fil2 {fill:black;fill-rule:nonzero}
   ]]>
  </style>
 </defs>
 <g id="Warstwa_x0020_1">
  <metadata id="CorelCorpID_0Corel-Layer"/>
  <g id="_654225600">
   <polygon class="fil0" points="1520,780 1774,1046 2218,1041 1978,783 2219,524 1778,515 "/>
   <polygon class="fil0" points="1357,780 1103,1046 659,1041 899,783 658,524 1099,515 "/>
  </g>
  <g id="_654225344">
   <polygon class="fil1" points="1438,699 1704,445 1700,1 1442,241 1183,0 1174,441 "/>
   <polygon class="fil1" points="1438,862 1704,1116 1700,1560 1442,1320 1183,1561 1174,1120 "/>
  </g>
  <polygon class="fil2" points="0,121 28,149 631,752 659,781 631,809 28,1412 0,1440 0,1327 546,781 0,234 "/>
  <path class="fil2" d="M0 971l0 -32 0 -32 0 -254 0 -32 0 -32 0 -112 0 -45 0 -45 22 22 346 346 22 22 -22 22 -346 346 -22 22 0 -45 0 -45 0 -112zm0 -63l127 0 0 -254 -127 0 0 254z"/>
  <polygon class="fil0 str0" points="559,198 659,98 759,198 659,298 "/>
  <polygon class="fil0 str0" points="2119,198 2219,98 2319,198 2219,298 "/>
  <polygon class="fil0 str0" points="559,1344 659,1244 759,1344 659,1444 "/>
  <polygon class="fil0 str0" points="2119,1344 2219,1244 2319,1344 2219,1444 "/>
  <g id="_193210112">
   <polygon class="fil2" points="2879,121 2850,149 2248,752 2219,781 2248,809 2850,1412 2879,1440 2879,1327 2333,781 2879,234 "/>
   <path class="fil2" d="M2879 971l0 -32 0 -32 0 -254 0 -32 0 -32 0 -112 0 -45 0 -45 -22 22 -346 346 -22 22 22 22 346 346 22 22 0 -45 0 -45 0 -112zm0 -63l-127 0 0 -254 127 0 0 254z"/>
  </g>
 </g>
</svg>
